<svg width="91" height="24" viewBox="0 0 91 24" fill="none" xmlns="http://www.w3.org/2000/svg">
<path d="M5.93126 18.9767C4.83377 19.0114 3.75033 18.7493 2.82472 18.225C1.8991 17.7008 1.17507 16.9393 0.748695 16.0415C0.229722 14.991 -0.0247707 13.8527 0.0029566 12.706C-0.0307432 11.5589 0.224005 10.4195 0.748695 9.37055C1.18468 8.48065 1.91169 7.72729 2.83564 7.20796C3.7596 6.68863 4.83798 6.42722 5.93126 6.45756C6.93179 6.43355 7.91845 6.66927 8.77007 7.13578C9.54604 7.54258 10.1394 8.17505 10.4495 8.92582H10.1487V3.12764C10.1235 2.87716 10.1548 2.62474 10.2409 2.38514C10.327 2.14554 10.4661 1.92359 10.6501 1.73229C10.8538 1.55914 11.0964 1.42606 11.362 1.34177C11.6277 1.25747 11.9104 1.22384 12.1917 1.24309C12.4727 1.22692 12.7544 1.26198 13.0196 1.34612C13.2847 1.43026 13.5276 1.56168 13.7333 1.73229C13.9296 1.91801 14.0801 2.13805 14.1751 2.37832C14.27 2.6186 14.3074 2.87381 14.2848 3.12764V17.0255C14.3044 17.2791 14.2656 17.5336 14.1708 17.7735C14.076 18.0133 13.9271 18.2336 13.7333 18.4208C13.5336 18.5925 13.2953 18.7249 13.034 18.8092C12.7726 18.8935 12.4941 18.9279 12.2168 18.91C11.9331 18.9305 11.6477 18.8992 11.3782 18.8179C11.1087 18.7366 10.8609 18.6071 10.6501 18.4375C10.2743 18.052 10.0851 17.5506 10.1237 17.0422V15.3744L10.4307 16.3306C10.1715 17.1349 9.58098 17.8234 8.77634 18.2596C7.9277 18.7408 6.93835 18.9902 5.93126 18.9767ZM7.1846 16.1972C7.74405 16.2165 8.29694 16.0847 8.77007 15.8191C9.23584 15.5347 9.59921 15.1371 9.81661 14.674C10.0964 14.0426 10.2286 13.3674 10.2051 12.6894C10.2933 11.7567 9.99964 10.8271 9.37794 10.071C9.11043 9.79198 8.77541 9.57009 8.39782 9.42187C8.02023 9.27364 7.60981 9.20289 7.19713 9.21489C6.64478 9.20675 6.10058 9.33369 5.62419 9.5818C5.14123 9.86009 4.76696 10.2639 4.55258 10.7381C4.29157 11.3636 4.17025 12.0283 4.19538 12.6949C4.11276 13.6393 4.40056 14.58 5.01005 15.3577C5.27286 15.6374 5.60434 15.8599 5.9791 16.0083C6.35385 16.1567 6.76193 16.227 7.17206 16.2138L7.1846 16.1972ZM24.0169 18.9767C22.6983 19.0049 21.3921 18.7453 20.2131 18.2207C19.1503 17.7334 18.277 16.9742 17.7064 16.0415C17.0967 15.0145 16.7926 13.8664 16.8228 12.706C16.8065 11.8228 16.9744 10.9446 17.3178 10.1155C17.6384 9.36789 18.1438 8.69354 18.7968 8.14198C19.4463 7.58096 20.2273 7.15389 21.0841 6.89117C22.0309 6.59068 23.0303 6.44198 24.0357 6.452C25.3406 6.42764 26.6321 6.68924 27.7958 7.2136C28.8518 7.69624 29.7238 8.44463 30.3024 9.36499C30.9359 10.3848 31.2497 11.5366 31.2111 12.7005C31.2271 13.5947 31.0506 14.4834 30.691 15.3188C30.3756 16.061 29.8865 16.7355 29.2559 17.2979C28.5983 17.8634 27.809 18.2941 26.9435 18.5598C25.9977 18.8463 25.0037 18.9873 24.0044 18.9767H24.0169ZM24.0169 16.1972C24.574 16.2086 25.1221 16.0711 25.5899 15.8025C26.0557 15.518 26.419 15.1204 26.6364 14.6573C26.9141 14.0256 27.0442 13.3504 27.0187 12.6727C27.1069 11.74 26.8132 10.8105 26.1915 10.0543C25.9249 9.77574 25.591 9.55408 25.2145 9.40585C24.838 9.25763 24.4287 9.18665 24.0169 9.19821C23.4645 9.1892 22.92 9.3162 22.444 9.56512C21.9627 9.8495 21.5927 10.2593 21.3849 10.7381C21.1239 11.3636 21.0026 12.0283 21.0277 12.6949C20.9473 13.6425 21.2396 14.5855 21.8549 15.3633C22.117 15.6404 22.4468 15.861 22.8192 16.0083C23.1916 16.1557 23.5969 16.226 24.0044 16.2138L24.0169 16.1972ZM40.3104 18.9767C38.9737 19.0048 37.6492 18.7454 36.4501 18.2207C35.3858 17.7147 34.5138 16.9411 33.9434 15.997C33.3337 14.97 33.0296 13.822 33.0598 12.6616C33.0442 11.7766 33.212 10.8966 33.5549 10.0654C33.8668 9.3282 34.3566 8.66034 34.9899 8.10862C35.655 7.56103 36.4431 7.14426 37.3023 6.88561C38.2684 6.58463 39.2865 6.436 40.3104 6.44644C40.9224 6.45164 41.5319 6.51689 42.1277 6.64101C42.7832 6.76694 43.4158 6.97273 44.0077 7.25252C44.3406 7.3714 44.6081 7.60074 44.7535 7.89182C44.8973 8.14802 44.9539 8.43585 44.9164 8.72013C44.8792 8.99846 44.7555 9.26214 44.5592 9.48173C44.3728 9.71813 44.0902 9.88101 43.771 9.93599C43.4517 9.99097 43.1209 9.93373 42.8484 9.77637C42.505 9.59668 42.1332 9.46364 41.7454 9.38167C41.4031 9.30492 41.0519 9.26387 40.6989 9.25937C40.1984 9.25131 39.7014 9.33457 39.2388 9.50397C38.8459 9.65754 38.4984 9.88966 38.2236 10.1822C37.9396 10.4929 37.7267 10.8498 37.5969 11.2329C37.4388 11.7092 37.3628 12.204 37.3713 12.7005C37.307 13.6084 37.6091 14.5071 38.2236 15.2354C38.543 15.5379 38.9324 15.7755 39.3651 15.9319C39.7978 16.0883 40.2635 16.1598 40.7302 16.1416C41.082 16.1396 41.4326 16.106 41.7768 16.0415C42.1613 15.9531 42.5318 15.8224 42.8797 15.6524C43.0283 15.5742 43.1929 15.5231 43.364 15.5021C43.5351 15.4811 43.7092 15.4906 43.8761 15.5301C44.1603 15.6066 44.4045 15.7701 44.5654 15.9915C44.7509 16.2122 44.8558 16.478 44.8663 16.7531C44.9013 17.0373 44.8448 17.3245 44.7033 17.5814C44.557 17.8575 44.3001 18.0755 43.9827 18.1929C43.3873 18.4606 42.7554 18.6587 42.1026 18.7822C41.5195 18.906 40.9225 18.9713 40.3229 18.9767H40.3104ZM52.073 18.9767C51.2328 18.973 50.3944 18.9079 49.5663 18.7822C48.7632 18.663 47.9841 18.4401 47.2539 18.1206C46.926 17.9891 46.6476 17.7769 46.4517 17.5091C46.3103 17.2676 46.2433 16.9972 46.2575 16.7253C46.2747 16.472 46.3701 16.2277 46.5332 16.0193C46.7049 15.8168 46.9473 15.6702 47.2225 15.6023C47.5435 15.5221 47.8863 15.5478 48.1876 15.6746C48.8554 15.9261 49.5476 16.1233 50.2556 16.2639C50.8641 16.3735 51.4834 16.4294 52.1043 16.4307C52.6969 16.4711 53.2903 16.3612 53.8151 16.1138C53.9841 16.0215 54.1235 15.8923 54.2201 15.7385C54.3166 15.5847 54.3671 15.4115 54.3666 15.2354C54.3777 15.0967 54.3511 14.9576 54.289 14.8299C54.2268 14.7021 54.1309 14.5896 54.0094 14.5016C53.6966 14.3142 53.3377 14.196 52.9628 14.157L50.0676 13.6956C49.0769 13.5733 48.152 13.1854 47.4168 12.5837C46.8019 11.992 46.4753 11.2088 46.5081 10.4045C46.4884 9.64675 46.7603 8.9056 47.2789 8.30319C47.8262 7.67624 48.5629 7.20006 49.4033 6.93009C50.4032 6.59165 51.4667 6.42562 52.5367 6.44088C53.3046 6.4365 54.071 6.5017 54.824 6.63545C55.5257 6.76818 56.2043 6.98317 56.8419 7.27475C57.1397 7.39436 57.3827 7.60019 57.5313 7.85846C57.6722 8.09142 57.7208 8.35967 57.6691 8.62007C57.6319 8.87759 57.5172 9.12147 57.337 9.32607C57.1597 9.53613 56.9045 9.68382 56.6163 9.74301C56.2915 9.80454 55.9531 9.7714 55.6512 9.64851C55.1324 9.42572 54.5883 9.25241 54.0282 9.13151C53.5596 9.02186 53.0776 8.96398 52.5931 8.95917C51.9673 8.91395 51.341 9.04215 50.8008 9.32607C50.6318 9.41966 50.4924 9.54994 50.3959 9.70461C50.2994 9.85927 50.249 10.0332 50.2494 10.21C50.2426 10.471 50.3504 10.7242 50.5501 10.916C50.8347 11.122 51.1811 11.2496 51.5466 11.2829L54.4418 11.7499C55.4528 11.8555 56.4036 12.2317 57.1678 12.8283C57.4873 13.1074 57.7364 13.4435 57.8985 13.8144C58.0605 14.1853 58.1319 14.5825 58.1078 14.9797C58.1288 15.5524 57.9885 16.1207 57.6997 16.6332C57.4108 17.1457 56.9824 17.5862 56.4534 17.9149C55.1626 18.6735 53.6319 19.0456 52.0855 18.9767H52.073ZM62.5571 18.9045C62.2687 18.9212 61.9796 18.8839 61.7085 18.7948C61.4375 18.7057 61.1907 18.5669 60.9842 18.3875C60.6115 17.9636 60.4245 17.4344 60.4578 16.8976V8.51444C60.4149 7.97668 60.603 7.44443 60.9842 7.02459C61.1846 6.83547 61.4293 6.68767 61.701 6.59161C61.9728 6.49556 62.2651 6.45359 62.5571 6.46868C62.8409 6.45362 63.1247 6.49582 63.3874 6.59211C63.6501 6.6884 63.8847 6.83627 64.0737 7.02459C64.4685 7.43891 64.6663 7.97316 64.6252 8.51444V16.8531C64.6585 17.3899 64.4715 17.9191 64.0987 18.343C63.9049 18.5292 63.6677 18.6758 63.4037 18.7727C63.1397 18.8697 62.8552 18.9146 62.5697 18.9045H62.5571ZM62.5571 4.49518C61.9237 4.5274 61.2972 4.3644 60.7837 4.03377C60.5728 3.8592 60.4074 3.64586 60.2992 3.40869C60.191 3.17151 60.1424 2.91622 60.157 2.66067C60.1384 2.40473 60.1851 2.14838 60.2936 1.91065C60.4021 1.67293 60.5696 1.45996 60.7837 1.28756C61.2926 0.933886 61.9309 0.759644 62.5759 0.798356C63.2117 0.756863 63.8414 0.931796 64.3369 1.28756C64.5501 1.45936 64.7171 1.67143 64.8255 1.90812C64.934 2.14481 64.9812 2.40009 64.9636 2.65511C64.9781 2.91066 64.9296 3.16595 64.8214 3.40313C64.7131 3.6403 64.5478 3.85364 64.3369 4.02822C63.8303 4.36736 63.2029 4.53315 62.5697 4.49518H62.5571ZM70.9796 18.9489C70.6938 18.9654 70.4072 18.9305 70.137 18.8464C69.8667 18.7624 69.6183 18.6309 69.4066 18.4597C69.0355 18.0722 68.8489 17.5718 68.8865 17.0644V9.4595H67.8901C67.4485 9.48159 67.0145 9.34995 66.6806 9.09259C66.5388 8.9594 66.429 8.80201 66.3579 8.62998C66.2868 8.45796 66.2559 8.2749 66.267 8.09195C66.2507 7.90437 66.2791 7.71585 66.3504 7.53865C66.4216 7.36146 66.5342 7.19956 66.6806 7.06351C67.0145 6.80614 67.4485 6.67451 67.8901 6.6966H70.096L68.9304 7.67501V6.91897C68.9304 5.1734 69.4129 3.867 70.3905 3.02757C71.599 2.08076 73.1353 1.52778 74.7459 1.45989L75.6295 1.38763C76.0194 1.3392 76.4164 1.40768 76.7575 1.5822C77.0323 1.72594 77.2393 1.953 77.3403 2.2215C77.4292 2.4828 77.4464 2.75918 77.3904 3.02757C77.3374 3.28928 77.2053 3.53331 77.0082 3.73358C76.9134 3.83338 76.7955 3.91386 76.6625 3.96951C76.5294 4.02516 76.3844 4.05466 76.2374 4.05601L75.8237 4.06713C75.0559 4.06295 74.3083 4.28595 73.6993 4.70087C73.4747 4.91185 73.3027 5.16252 73.1947 5.43649C73.0867 5.71047 73.0451 6.00158 73.0727 6.29079V7.12466L72.5463 6.70772H75.0529C75.273 6.69328 75.494 6.71832 75.7029 6.78136C75.9118 6.8444 76.1042 6.94414 76.2687 7.07462C76.4152 7.21068 76.5277 7.37257 76.599 7.54977C76.6702 7.72696 76.6986 7.91549 76.6823 8.10307C76.6934 8.28602 76.6625 8.46908 76.5914 8.6411C76.5203 8.81312 76.4105 8.97052 76.2687 9.10371C76.1042 9.23419 75.9118 9.33393 75.7029 9.39697C75.494 9.46001 75.273 9.48506 75.0529 9.47061H73.0977V17.0422C73.0727 18.2985 72.3708 18.9267 70.9921 18.9267L70.9796 18.9489ZM82.0904 23.3295C81.6628 23.3447 81.243 23.2245 80.906 22.9904C80.5956 22.7641 80.3976 22.4387 80.3546 22.0843C80.3051 21.6901 80.3811 21.2914 80.5739 20.9336L82.4226 17.3146V18.8322L77.5408 8.89802C77.3681 8.5272 77.3014 8.12426 77.3465 7.72504C77.3787 7.54869 77.4509 7.37995 77.5586 7.22899C77.6663 7.07803 77.8073 6.94799 77.9732 6.8467C78.3979 6.59889 78.9007 6.47812 79.4083 6.50203C79.8326 6.48248 80.2513 6.59451 80.5927 6.8189C80.9781 7.12545 81.262 7.51948 81.4136 7.95853L84.6661 15.2966H83.7825L87.1477 7.95853C87.3132 7.52637 87.6077 7.14213 87.9999 6.8467C88.392 6.62 88.8548 6.50909 89.3222 6.52983C89.7364 6.50977 90.1432 6.63337 90.4565 6.8745C90.6032 6.97916 90.7249 7.10883 90.8142 7.25587C90.9035 7.4029 90.9588 7.56432 90.9766 7.7306C91.0433 8.13232 90.9666 8.54247 90.7573 8.90358L84.2775 21.912C84.0924 22.3541 83.7684 22.7399 83.3438 23.0238C82.9698 23.2344 82.5333 23.3409 82.0904 23.3295Z" fill="#003CA5"/>
</svg>
