<svg width="36" height="37" viewBox="0 0 36 37" fill="none" xmlns="http://www.w3.org/2000/svg">
<path d="M18 7.87201C16.22 7.87201 14.4799 8.34619 12.9999 9.23458C11.5198 10.123 10.3663 11.3857 9.68509 12.863C9.0039 14.3403 8.82567 15.966 9.17294 17.5343C9.5202 19.1026 10.3774 20.5432 11.636 21.6739C12.8947 22.8047 14.4984 23.5747 16.2442 23.8866C17.99 24.1986 19.7996 24.0385 21.4442 23.4266C23.0887 22.8146 24.4943 21.7783 25.4832 20.4488C26.4722 19.1192 27 17.5561 27 15.957C27 13.8127 26.0518 11.7563 24.364 10.24C22.6761 8.72382 20.387 7.87201 18 7.87201Z" fill="#C6C3C3"/>
<path d="M18 0.325989C14.4399 0.325989 10.9598 1.38814 7.99974 3.37814C5.03966 5.36813 2.73255 8.19659 1.37018 11.5058C0.0077991 14.8151 -0.348661 18.4565 0.345873 21.9695C1.04041 25.4826 2.75474 28.7095 5.27208 31.2423C7.78943 33.7751 10.9967 35.5 14.4884 36.1987C17.98 36.8975 21.5992 36.5389 24.8883 35.1682C28.1774 33.7974 30.9886 31.4762 32.9665 28.4979C34.9443 25.5197 36 22.0183 36 18.4364C35.9946 13.6349 34.0964 9.03161 30.7219 5.63645C27.3474 2.24128 22.7722 0.331467 18 0.325989ZM28.2754 29.983C28.2498 28.2862 27.5627 26.6675 26.3622 25.4756C25.1616 24.2837 23.5438 23.614 21.8571 23.6108H14.1429C12.4562 23.614 10.8384 24.2837 9.63783 25.4756C8.4373 26.6675 7.7502 28.2862 7.72458 29.983C5.39302 27.8884 3.7488 25.1306 3.00965 22.0748C2.2705 19.0191 2.47128 15.8095 3.5854 12.8711C4.69952 9.93273 6.67443 7.40413 9.24863 5.62013C11.8228 3.83612 14.8749 2.88088 18.0006 2.88088C21.1264 2.88088 24.1785 3.83612 26.7527 5.62013C29.3269 7.40413 31.3018 9.93273 32.4159 12.8711C33.53 15.8095 33.7308 19.0191 32.9916 22.0748C32.2525 25.1306 30.6083 27.8884 28.2767 29.983H28.2754Z" fill="#C6C3C3"/>
</svg>
