<svg width="20" height="21" viewBox="0 0 20 21" fill="none" xmlns="http://www.w3.org/2000/svg">
<path d="M8 15.4844H9V16.4844C9 16.7496 9.10536 17.0039 9.29289 17.1915C9.48043 17.379 9.73478 17.4844 10 17.4844C10.2652 17.4844 10.5196 17.379 10.7071 17.1915C10.8946 17.0039 11 16.7496 11 16.4844V15.4844H12C12.2652 15.4844 12.5196 15.379 12.7071 15.1915C12.8946 15.0039 13 14.7496 13 14.4844C13 14.2192 12.8946 13.9648 12.7071 13.7773C12.5196 13.5897 12.2652 13.4844 12 13.4844H11V12.4844C11 12.2192 10.8946 11.9648 10.7071 11.7773C10.5196 11.5897 10.2652 11.4844 10 11.4844C9.73478 11.4844 9.48043 11.5897 9.29289 11.7773C9.10536 11.9648 9 12.2192 9 12.4844V13.4844H8C7.73478 13.4844 7.48043 13.5897 7.29289 13.7773C7.10536 13.9648 7 14.2192 7 14.4844C7 14.7496 7.10536 15.0039 7.29289 15.1915C7.48043 15.379 7.73478 15.4844 8 15.4844ZM17 4.48438H15V3.48438C15 2.68873 14.6839 1.92566 14.1213 1.36305C13.5587 0.800446 12.7956 0.484375 12 0.484375H8C7.20435 0.484375 6.44129 0.800446 5.87868 1.36305C5.31607 1.92566 5 2.68873 5 3.48438V4.48438H3C2.20435 4.48438 1.44129 4.80045 0.87868 5.36305C0.316071 5.92566 0 6.68873 0 7.48438V17.4844C0 18.28 0.316071 19.0431 0.87868 19.6057C1.44129 20.1683 2.20435 20.4844 3 20.4844H17C17.7956 20.4844 18.5587 20.1683 19.1213 19.6057C19.6839 19.0431 20 18.28 20 17.4844V7.48438C20 6.68873 19.6839 5.92566 19.1213 5.36305C18.5587 4.80045 17.7956 4.48438 17 4.48438ZM7 3.48438C7 3.21916 7.10536 2.9648 7.29289 2.77727C7.48043 2.58973 7.73478 2.48438 8 2.48438H12C12.2652 2.48438 12.5196 2.58973 12.7071 2.77727C12.8946 2.9648 13 3.21916 13 3.48438V4.48438H7V3.48438ZM18 17.4844C18 17.7496 17.8946 18.0039 17.7071 18.1915C17.5196 18.379 17.2652 18.4844 17 18.4844H3C2.73478 18.4844 2.48043 18.379 2.29289 18.1915C2.10536 18.0039 2 17.7496 2 17.4844V10.4844H18V17.4844ZM18 8.48438H2V7.48438C2 7.21916 2.10536 6.9648 2.29289 6.77727C2.48043 6.58973 2.73478 6.48438 3 6.48438H17C17.2652 6.48438 17.5196 6.58973 17.7071 6.77727C17.8946 6.9648 18 7.21916 18 7.48438V8.48438Z" fill="#060E1E"/>
</svg>
