<svg width="40" height="40" viewBox="0 0 40 40" fill="none" xmlns="http://www.w3.org/2000/svg">
<path d="M0 20C0 8.95431 8.95431 0 20 0C31.0457 0 40 8.95431 40 20C40 31.0457 31.0457 40 20 40C8.95431 40 0 31.0457 0 20Z" fill="#F7F7F8"/>
<path d="M21.4099 19.9999L25.7099 15.7099C25.8982 15.5216 26.004 15.2662 26.004 14.9999C26.004 14.7336 25.8982 14.4782 25.7099 14.2899C25.5216 14.1016 25.2662 13.9958 24.9999 13.9958C24.7336 13.9958 24.4782 14.1016 24.2899 14.2899L19.9999 18.5899L15.7099 14.2899C15.5216 14.1016 15.2662 13.9958 14.9999 13.9958C14.7336 13.9958 14.4782 14.1016 14.2899 14.2899C14.1016 14.4782 13.9958 14.7336 13.9958 14.9999C13.9958 15.2662 14.1016 15.5216 14.2899 15.7099L18.5899 19.9999L14.2899 24.2899C14.1962 24.3829 14.1218 24.4935 14.071 24.6154C14.0203 24.7372 13.9941 24.8679 13.9941 24.9999C13.9941 25.132 14.0203 25.2627 14.071 25.3845C14.1218 25.5064 14.1962 25.617 14.2899 25.7099C14.3829 25.8037 14.4935 25.8781 14.6154 25.9288C14.7372 25.9796 14.8679 26.0057 14.9999 26.0057C15.132 26.0057 15.2627 25.9796 15.3845 25.9288C15.5064 25.8781 15.617 25.8037 15.7099 25.7099L19.9999 21.4099L24.2899 25.7099C24.3829 25.8037 24.4935 25.8781 24.6154 25.9288C24.7372 25.9796 24.8679 26.0057 24.9999 26.0057C25.132 26.0057 25.2627 25.9796 25.3845 25.9288C25.5064 25.8781 25.617 25.8037 25.7099 25.7099C25.8037 25.617 25.8781 25.5064 25.9288 25.3845C25.9796 25.2627 26.0057 25.132 26.0057 24.9999C26.0057 24.8679 25.9796 24.7372 25.9288 24.6154C25.8781 24.4935 25.8037 24.3829 25.7099 24.2899L21.4099 19.9999Z" fill="#060E1E"/>
</svg>
