<svg width="48" height="48" viewBox="0 0 48 48" fill="none" xmlns="http://www.w3.org/2000/svg">
<g clip-path="url(#clip0_75_10)">
<path d="M45.3508 48.0002C46.8137 48.0002 48 46.8141 48 45.351V2.64919C48 1.18594 46.8137 0 45.3508 0H2.64919C1.18575 0 0 1.18594 0 2.64919V45.351C0 46.8141 1.18575 48.0002 2.64919 48.0002H45.3508" fill="#395185"/>
<path d="M33.1191 48.0001V29.4119H39.3585L40.2926 22.1679H33.1191V17.5426C33.1191 15.4453 33.7016 14.0159 36.7093 14.0159L40.5454 14.0143V7.5352C39.8816 7.44688 37.6046 7.24963 34.9556 7.24963C29.4247 7.24963 25.6384 10.6256 25.6384 16.8254V22.1679H19.383V29.4119H25.6384V48.0001H33.1191" fill="white"/>
</g>
<defs>
<clipPath id="clip0_75_10">
<rect width="48" height="48" fill="white"/>
</clipPath>
</defs>
</svg>
