<svg width="10" height="19" viewBox="0 0 10 19" fill="none" xmlns="http://www.w3.org/2000/svg">
<path d="M0.787397 9.63367H2.74037V17.7566C2.74037 17.9169 2.86898 18.0469 3.02773 18.0469H6.33908C6.49783 18.0469 6.62645 17.9169 6.62645 17.7566V9.67195H8.87158C9.01756 9.67195 9.1404 9.56128 9.15707 9.41479L9.49805 6.42436C9.50741 6.34209 9.48163 6.25969 9.42713 6.19795C9.3726 6.13618 9.29455 6.10082 9.21264 6.10082H6.62658V4.22625C6.62658 3.66118 6.92773 3.37462 7.5218 3.37462C7.60646 3.37462 9.21264 3.37462 9.21264 3.37462C9.37139 3.37462 9.5 3.24462 9.5 3.0843V0.33934C9.5 0.178957 9.37139 0.0490195 9.21264 0.0490195H6.88238C6.86596 0.0482109 6.82946 0.046875 6.77566 0.046875C6.37134 0.046875 4.96595 0.127066 3.85579 1.15887C2.62574 2.30229 2.79674 3.67131 2.8376 3.90868V6.10075H0.787363C0.628614 6.10075 0.5 6.23068 0.5 6.39107V9.34331C0.500035 9.50366 0.628648 9.63367 0.787397 9.63367Z" fill="#003CA5"/>
</svg>
