<svg width="19" height="19" viewBox="0 0 19 19" fill="none" xmlns="http://www.w3.org/2000/svg">
<path d="M18.355 7.38085C18.435 7.38085 18.4999 7.44571 18.4999 7.52573V9.04682C18.4999 9.61614 18.447 10.1728 18.3456 10.7128C17.561 14.9072 13.8658 18.0771 9.43648 18.0465C4.4665 18.0123 0.489019 13.9966 0.500023 9.02654C0.510956 4.06542 4.53625 0.046875 9.49994 0.046875C11.9318 0.046875 14.1382 1.01163 15.7582 2.57874C15.8167 2.63531 15.8182 2.72854 15.7607 2.78606L13.6087 4.938C13.5533 4.9934 13.4638 4.99484 13.407 4.94081C12.3903 3.973 11.0146 3.37882 9.49994 3.37882C6.37207 3.37882 3.85331 5.87968 3.83208 9.00748C3.81074 12.1558 6.3566 14.7148 9.49994 14.7148C12.0503 14.7148 14.2074 13.03 14.9187 10.7128H9.64481C9.5648 10.7128 9.49994 10.6479 9.49994 10.5679V7.52569C9.49994 7.44568 9.5648 7.38081 9.64481 7.38081H18.355V7.38085Z" fill="#060E1E"/>
<path d="M18.3559 7.38086H17.2694C17.3494 7.38086 17.4143 7.44572 17.4143 7.52574V9.04683C17.4143 9.61615 17.3614 10.1728 17.26 10.7128C16.5115 14.7143 13.1138 17.7833 8.95703 18.0305C9.11608 18.0399 9.27618 18.0454 9.4374 18.0465C13.8667 18.0771 17.5619 14.9072 18.3465 10.7128C18.4479 10.1728 18.5008 9.61615 18.5008 9.04683V7.5257C18.5008 7.44572 18.4359 7.38086 18.3559 7.38086Z" fill="#1E88E5"/>
<path d="M4.35245 6.67316L1.61914 4.69823C3.15258 1.92474 6.10751 0.046875 9.50071 0.046875C11.9326 0.046875 14.139 1.01163 15.759 2.57874C15.8175 2.63531 15.819 2.72854 15.7614 2.78606L13.6095 4.938C13.5542 4.9933 13.4647 4.99502 13.4081 4.94109C12.3913 3.9731 11.0155 3.37886 9.50071 3.37886C7.21795 3.37886 5.25027 4.72829 4.35245 6.67316Z" fill="#F44336"/>
<path d="M3.5625 6.10308L4.35158 6.6732C5.17106 4.89803 6.88204 3.61955 8.91019 3.40984C8.92545 3.40819 8.94011 3.40619 8.95565 3.40471C8.77716 3.38777 8.59628 3.37891 8.41333 3.37891C6.35118 3.37891 4.55401 4.46604 3.5625 6.10308Z" fill="#E53935"/>
<path d="M14.6721 2.57874C14.7306 2.63531 14.7321 2.72854 14.6746 2.78609L12.9279 4.53275C13.0953 4.66002 13.2555 4.79614 13.4075 4.94084C13.4642 4.99488 13.5538 4.99344 13.6092 4.93803L15.7611 2.78609C15.8186 2.72854 15.8171 2.63534 15.7586 2.57874C14.1387 1.01163 11.9322 0.046875 9.50037 0.046875C9.31787 0.046875 9.13682 0.052957 8.95703 0.0636796C11.1733 0.195691 13.1737 1.12919 14.6721 2.57874Z" fill="#E53935"/>
<path d="M16.1027 15.1636C14.4591 16.9372 12.1094 18.0472 9.50066 18.0472C5.97711 18.0472 2.92655 16.0223 1.44922 13.0724L4.23973 11.1602C5.07711 13.2437 7.11722 14.7152 9.50066 14.7152C10.9964 14.7152 12.3567 14.1358 13.3694 13.189L16.1027 15.1636Z" fill="#4CAF50"/>
<path d="M4.23888 11.1602L3.41602 11.724C4.37173 13.5045 6.25114 14.7152 8.41327 14.7152C8.59612 14.7152 8.77686 14.7062 8.95527 14.6893C6.80903 14.4847 5.01168 13.0832 4.23888 11.1602Z" fill="#43A047"/>
<path d="M9.50088 18.0469C12.1096 18.0469 14.4594 16.9369 16.1029 15.1633L15.4334 14.6797C13.8902 16.6003 11.5752 17.8744 8.95898 18.0306C9.13828 18.0412 9.31891 18.0469 9.50088 18.0469Z" fill="#43A047"/>
<path d="M3.83198 9.04781C3.83198 9.7946 3.97648 10.5077 4.23906 11.1607L1.44851 13.073C0.841541 11.8619 0.5 10.4947 0.5 9.04781C0.5 7.47057 0.90563 5.98818 1.61838 4.69922L4.3517 6.67414C4.01814 7.39593 3.83198 8.20034 3.83198 9.04781Z" fill="#FFC107"/>
<path d="M3.41683 11.7241L4.23969 11.1602C3.97711 10.5072 3.83262 9.79409 3.83262 9.04731C3.83262 8.19984 4.01877 7.39543 4.35233 6.67364L3.56325 6.10352C3.05085 6.94955 2.75347 7.94232 2.74623 9.008C2.73955 9.99076 2.98307 10.9161 3.41683 11.7241Z" fill="#FFB300"/>
</svg>
