<svg width="12" height="7" viewBox="0 0 12 7" fill="none" xmlns="http://www.w3.org/2000/svg">
<path d="M10.9997 0.958761C10.8123 0.77251 10.5589 0.667969 10.2947 0.667969C10.0305 0.667969 9.77707 0.77251 9.5897 0.958761L5.9997 4.49876L2.4597 0.958761C2.27234 0.77251 2.01889 0.667969 1.7547 0.667969C1.49052 0.667969 1.23707 0.77251 1.0497 0.958761C0.955976 1.05172 0.881582 1.16233 0.830813 1.28418C0.780044 1.40604 0.753906 1.53675 0.753906 1.66876C0.753906 1.80077 0.780044 1.93148 0.830813 2.05334C0.881582 2.1752 0.955976 2.2858 1.0497 2.37876L5.2897 6.61876C5.38267 6.71249 5.49327 6.78688 5.61513 6.83765C5.73699 6.88842 5.86769 6.91456 5.9997 6.91456C6.13172 6.91456 6.26242 6.88842 6.38428 6.83765C6.50614 6.78688 6.61674 6.71249 6.7097 6.61876L10.9997 2.37876C11.0934 2.2858 11.1678 2.1752 11.2186 2.05334C11.2694 1.93148 11.2955 1.80077 11.2955 1.66876C11.2955 1.53675 11.2694 1.40604 11.2186 1.28418C11.1678 1.16233 11.0934 1.05172 10.9997 0.958761Z" fill="#060E1E"/>
</svg>
