<svg width="35" height="35" viewBox="0 0 35 35" fill="none" xmlns="http://www.w3.org/2000/svg">
<path d="M34.483 9.65138C33.9611 7.5902 32.8392 5.72796 31.2578 4.29785C29.8453 3.08875 28.1132 2.30865 26.2676 2.05038C25.9439 1.37753 25.4112 0.825987 24.7481 0.477132C24.0851 0.128278 23.3269 0.000590041 22.5853 0.11291C21.8437 0.22523 21.1581 0.571608 20.6296 1.10094C20.1011 1.63026 19.7577 2.3145 19.65 3.05269C19.5424 3.79088 19.6763 4.54392 20.0318 5.2007C20.3874 5.85748 20.9459 6.38321 21.6249 6.70031C22.3038 7.01742 23.0673 7.1091 23.8027 6.96184C24.5381 6.81458 25.2063 6.43617 25.7089 5.88245C26.8096 6.03504 27.8442 6.49472 28.6929 7.2082C29.6999 8.1403 30.4106 9.34514 30.7372 10.6741C31.5019 13.9325 31.0953 17.3543 29.5881 20.3458C28.1692 23.1751 26.1401 25.6583 23.6456 27.6185C21.3727 29.3673 19.1633 30.2006 17.4999 30.2006C15.8365 30.2006 13.6271 29.3673 11.3542 27.6185C8.86141 25.6565 6.83271 23.1737 5.41172 20.3458C3.90661 17.3535 3.5023 13.9318 4.26893 10.6741C4.59729 9.34148 5.31529 8.13545 6.3323 7.2082C7.4397 6.27386 8.8417 5.75553 10.294 5.74356C11.02 5.75231 11.7357 5.91575 12.3928 6.22286C13.0499 6.52997 13.6332 6.97361 14.1033 7.52386C14.7661 8.25656 15.2352 9.14173 15.4683 10.0996C13.8433 10.5453 12.4106 11.5097 11.3908 12.8443C10.371 14.1789 9.82055 15.8098 9.82416 17.486C9.82416 17.688 9.82416 17.89 9.8559 18.1173C9.59503 18.374 9.38825 18.6799 9.24762 19.017C9.107 19.3541 9.03536 19.7157 9.0369 20.0807C9.03911 20.5549 9.1634 21.0207 9.39794 21.4337C9.63247 21.8467 9.96944 22.1931 10.3767 22.4399C10.784 22.6866 11.2481 22.8256 11.7247 22.8436C12.2013 22.8615 12.6746 22.7578 13.0995 22.5423C13.5244 22.3268 13.8867 22.0068 14.152 21.6126C14.4172 21.2185 14.5766 20.7633 14.6148 20.2906C14.6531 19.8178 14.569 19.3432 14.3705 18.912C14.1721 18.4807 13.8659 18.1071 13.4811 17.8269C13.475 17.7217 13.475 17.6163 13.4811 17.5112C13.3998 16.9371 13.4432 16.3523 13.6083 15.7962C13.7734 15.2401 14.0563 14.7256 14.4381 14.2874C14.8199 13.8492 15.2917 13.4974 15.8217 13.2557C16.3517 13.014 16.9276 12.888 17.5107 12.8862C18.0938 12.8843 18.6705 13.0068 19.202 13.2451C19.7336 13.4835 20.2075 13.8324 20.5921 14.2682C20.9767 14.704 21.2629 15.2167 21.4315 15.7718C21.6001 16.3268 21.6471 16.9113 21.5695 17.486C21.5695 17.5933 21.5695 17.7006 21.5695 17.8079C21.1068 18.1403 20.7578 18.6059 20.5698 19.1418C20.3818 19.6777 20.3638 20.2581 20.5182 20.8045C20.6727 21.3509 20.9921 21.837 21.4333 22.197C21.8746 22.5571 22.4163 22.7738 22.9854 22.8178C23.5545 22.8617 24.1234 22.7309 24.6153 22.443C25.1072 22.1551 25.4983 21.7239 25.7358 21.2078C25.9733 20.6917 26.0458 20.1155 25.9433 19.5571C25.8408 18.9988 25.5684 18.4852 25.1629 18.0857C25.1629 17.8837 25.1629 17.688 25.1629 17.486C25.1608 15.7869 24.5899 14.1368 23.5404 12.796C22.4908 11.4552 21.0224 10.4998 19.3665 10.0807C19.0958 8.1786 18.2601 6.4002 16.9666 4.97336C16.1324 4.01776 15.103 3.24987 13.9469 2.72082C12.7909 2.19178 11.5348 1.91373 10.2622 1.90518H10.1987C7.83247 1.92327 5.5484 2.7705 3.74832 4.29785L4.07211 4.67033L4.21179 4.82815L3.74832 4.29785C2.16523 5.7276 1.04118 7.58974 0.516769 9.65138C-0.506386 13.8342 -4.85891e-05 18.2425 1.94526 22.0882C3.6252 25.4306 6.02474 28.3641 8.97341 30.6804C11.4241 32.5743 14.1731 33.8369 16.7888 34.02H17.1444H17.4999H17.8554L18.211 33.9885C20.8267 33.7928 23.5757 32.5301 26.0264 30.6488C28.9733 28.3419 31.3747 25.4195 33.0609 22.0882C35.0014 18.241 35.5053 13.8336 34.483 9.65138Z" fill="#FC2C52"/>
</svg>
