<svg width="16" height="21" viewBox="0 0 16 21" fill="none" xmlns="http://www.w3.org/2000/svg">
<path d="M8 0.484375C5.87827 0.484375 3.84344 1.32723 2.34315 2.82752C0.842855 4.32781 0 6.36264 0 8.48438C0 13.8844 7.05 19.9844 7.35 20.2444C7.53113 20.3993 7.76165 20.4844 8 20.4844C8.23835 20.4844 8.46887 20.3993 8.65 20.2444C9 19.9844 16 13.8844 16 8.48438C16 6.36264 15.1571 4.32781 13.6569 2.82752C12.1566 1.32723 10.1217 0.484375 8 0.484375ZM8 18.1344C5.87 16.1344 2 11.8244 2 8.48438C2 6.89308 2.63214 5.36695 3.75736 4.24173C4.88258 3.11652 6.4087 2.48438 8 2.48438C9.5913 2.48438 11.1174 3.11652 12.2426 4.24173C13.3679 5.36695 14 6.89308 14 8.48438C14 11.8244 10.13 16.1444 8 18.1344ZM8 4.48438C7.20887 4.48438 6.43552 4.71897 5.77772 5.1585C5.11992 5.59802 4.60723 6.22274 4.30448 6.95364C4.00173 7.68455 3.92252 8.48881 4.07686 9.26474C4.2312 10.0407 4.61216 10.7534 5.17157 11.3128C5.73098 11.8722 6.44371 12.2532 7.21964 12.4075C7.99556 12.5619 8.79983 12.4826 9.53073 12.1799C10.2616 11.8771 10.8864 11.3645 11.3259 10.7067C11.7654 10.0489 12 9.2755 12 8.48438C12 7.42351 11.5786 6.40609 10.8284 5.65595C10.0783 4.9058 9.06087 4.48438 8 4.48438ZM8 10.4844C7.60444 10.4844 7.21776 10.3671 6.88886 10.1473C6.55996 9.92755 6.30362 9.61519 6.15224 9.24974C6.00087 8.88429 5.96126 8.48216 6.03843 8.09419C6.1156 7.70623 6.30608 7.34987 6.58579 7.07016C6.86549 6.79046 7.22186 6.59997 7.60982 6.5228C7.99778 6.44563 8.39991 6.48524 8.76537 6.63662C9.13082 6.78799 9.44318 7.04434 9.66294 7.37323C9.8827 7.70213 10 8.08881 10 8.48438C10 9.01481 9.78929 9.52352 9.41421 9.89859C9.03914 10.2737 8.53043 10.4844 8 10.4844Z" fill="#060E1E"/>
</svg>
