<svg width="18" height="18" viewBox="0 0 18 18" fill="none" xmlns="http://www.w3.org/2000/svg">
<path d="M9.49297 9.84509L7.5763 11.7534C7.49819 11.8309 7.4362 11.9231 7.39389 12.0246C7.35159 12.1262 7.3298 12.2351 7.3298 12.3451C7.3298 12.4551 7.35159 12.564 7.39389 12.6656C7.4362 12.7671 7.49819 12.8593 7.5763 12.9368C7.65377 13.0149 7.74594 13.0769 7.84749 13.1192C7.94904 13.1615 8.05796 13.1833 8.16797 13.1833C8.27798 13.1833 8.3869 13.1615 8.48845 13.1192C8.59 13.0769 8.68217 13.0149 8.75963 12.9368L12.093 9.60343C12.1688 9.52417 12.2283 9.43072 12.268 9.32843C12.3513 9.12554 12.3513 8.89798 12.268 8.69509C12.2283 8.5928 12.1688 8.49935 12.093 8.42009L8.75963 5.08676C8.68194 5.00906 8.58969 4.94743 8.48818 4.90538C8.38666 4.86333 8.27785 4.84168 8.16797 4.84168C8.05809 4.84168 7.94928 4.86333 7.84776 4.90538C7.74624 4.94743 7.654 5.00906 7.5763 5.08676C7.4986 5.16446 7.43697 5.2567 7.39492 5.35822C7.35287 5.45974 7.33123 5.56854 7.33123 5.67843C7.33123 5.78831 7.35287 5.89712 7.39492 5.99864C7.43697 6.10015 7.4986 6.1924 7.5763 6.27009L9.49297 8.17843H1.5013C1.28029 8.17843 1.06833 8.26623 0.912046 8.42251C0.755766 8.57879 0.667969 8.79075 0.667969 9.01176C0.667969 9.23277 0.755766 9.44474 0.912046 9.60102C1.06833 9.7573 1.28029 9.84509 1.5013 9.84509H9.49297ZM9.0013 0.678428C7.44388 0.671475 5.91567 1.10111 4.59003 1.91859C3.26438 2.73607 2.19435 3.90869 1.5013 5.30343C1.40185 5.50234 1.38548 5.73261 1.45581 5.94359C1.52613 6.15457 1.67739 6.32897 1.8763 6.42843C2.07521 6.52788 2.30549 6.54425 2.51647 6.47392C2.72745 6.4036 2.90185 6.25234 3.0013 6.05343C3.52813 4.98953 4.3295 4.08561 5.32259 3.43508C6.31569 2.78456 7.46449 2.41103 8.65026 2.35309C9.83604 2.29515 11.0158 2.55491 12.0676 3.10552C13.1194 3.65613 14.005 4.47762 14.6331 5.48509C15.2611 6.49256 15.6087 7.64947 15.64 8.83625C15.6712 10.023 15.385 11.1966 14.8109 12.2358C14.2368 13.2749 13.3956 14.1419 12.3742 14.7471C11.3529 15.3523 10.1885 15.6739 9.0013 15.6784C7.7587 15.6838 6.53976 15.3387 5.48438 14.6828C4.42899 14.0269 3.57993 13.0867 3.03464 11.9701C2.93518 11.7712 2.76078 11.6199 2.5498 11.5496C2.33882 11.4793 2.10855 11.4956 1.90964 11.5951C1.71072 11.6946 1.55947 11.869 1.48914 12.0799C1.41881 12.2909 1.43518 12.5212 1.53464 12.7201C2.19533 14.0497 3.19924 15.1786 4.44253 15.9901C5.68582 16.8016 7.12334 17.2663 8.6064 17.3359C10.0895 17.4056 11.5642 17.0778 12.8781 16.3864C14.192 15.695 15.2973 14.6651 16.0797 13.4033C16.8621 12.1415 17.2932 10.6935 17.3284 9.20926C17.3636 7.72498 17.0016 6.25825 16.2798 4.96079C15.5581 3.66332 14.5028 2.58223 13.2232 1.82935C11.9435 1.07647 10.486 0.679125 9.0013 0.678428Z" fill="#060E1E"/>
</svg>
