<svg width="16" height="15" viewBox="0 0 16 15" fill="none" xmlns="http://www.w3.org/2000/svg">
<path fill-rule="evenodd" clip-rule="evenodd" d="M7.16784 1.00963V0.847981C7.16784 0.626967 7.25564 0.415006 7.41192 0.258726C7.5682 0.102446 7.78016 0.0146484 8.00118 0.0146484C8.22219 0.0146484 8.43415 0.102446 8.59043 0.258726C8.74671 0.415006 8.83451 0.626967 8.83451 0.847981C8.83451 0.847981 8.83451 0.9465 8.83451 1.00963C8.18364 1.00963 7.16784 1.00963 7.16784 1.00963ZM7.16784 4.67298V4.83463C7.16784 5.05564 7.25564 5.2676 7.41192 5.42388C7.5682 5.58016 7.78016 5.66796 8.00118 5.66796C8.22219 5.66796 8.43415 5.58016 8.59043 5.42388C8.74671 5.2676 8.83451 5.05564 8.83451 4.83463C8.83451 4.83463 8.83451 4.73611 8.83451 4.67298C8.18364 4.67298 7.16784 4.67298 7.16784 4.67298ZM13.0012 2.80129C12.9224 2.7225 12.8288 2.66 12.7259 2.61736C12.6229 2.57471 12.5126 2.55277 12.4012 2.55277C12.2897 2.55277 12.1794 2.57471 12.0765 2.61736C11.9735 2.66 11.88 2.7225 11.8012 2.80129C11.7224 2.88009 11.6599 2.97363 11.6172 3.07658C11.5746 3.17953 11.5526 3.28987 11.5526 3.4013C11.5526 3.51273 11.5746 3.62306 11.6172 3.72601C11.6599 3.82896 11.7224 3.9225 11.8012 4.00129C12.5531 4.75292 13.0652 5.71065 13.2728 6.75336C13.4803 7.79606 13.374 8.87689 12.9672 9.85916C12.5605 10.8414 11.8715 11.681 10.9876 12.2717C10.1036 12.8624 9.06433 13.1777 8.00118 13.1777C6.93802 13.1777 5.89874 12.8624 5.01478 12.2717C4.13082 11.681 3.4419 10.8414 3.03513 9.85916C2.62837 8.87689 2.52204 7.79606 2.7296 6.75336C2.93715 5.71065 3.44927 4.75292 4.20118 4.00129C4.27997 3.9225 4.34247 3.82896 4.38511 3.72601C4.42776 3.62306 4.4497 3.51273 4.4497 3.4013C4.4497 3.28987 4.42776 3.17953 4.38511 3.07658C4.34247 2.97363 4.27997 2.88009 4.20118 2.80129C4.12238 2.7225 4.02884 2.66 3.92589 2.61736C3.82294 2.57471 3.71261 2.55277 3.60118 2.55277C3.48974 2.55277 3.37941 2.57471 3.27646 2.61736C3.17351 2.66 3.07997 2.7225 3.00118 2.80129C2.01944 3.78893 1.35218 5.04518 1.08357 6.41159C0.81496 7.778 0.957034 9.19336 1.49187 10.4791C2.0267 11.7649 2.93034 12.8634 4.08879 13.6362C5.24724 14.409 6.60861 14.8215 8.00118 14.8215C9.39374 14.8215 10.7551 14.409 11.9136 13.6362C13.072 12.8634 13.9756 11.7649 14.5105 10.4791C15.0453 9.19336 15.1874 7.778 14.9188 6.41159C14.6502 5.04518 13.9829 3.78893 13.0012 2.80129Z" fill="#060E1E"/>
<path d="M8.83451 1.00963H7.16784V4.67298H8.83451V1.00963Z" fill="#060E1E"/>
</svg>
