<svg width="296" height="21" viewBox="0 0 296 21" fill="none" xmlns="http://www.w3.org/2000/svg">
<rect y="9.54688" width="124.5" height="1" fill="#E9EAEC"/>
<path d="M149.318 9.75586V10.3848C149.318 11.1322 149.225 11.8021 149.038 12.3945C148.851 12.987 148.582 13.4906 148.231 13.9053C147.881 14.32 147.459 14.6367 146.967 14.8555C146.479 15.0742 145.932 15.1836 145.326 15.1836C144.738 15.1836 144.198 15.0742 143.706 14.8555C143.218 14.6367 142.795 14.32 142.435 13.9053C142.079 13.4906 141.803 12.987 141.607 12.3945C141.411 11.8021 141.313 11.1322 141.313 10.3848V9.75586C141.313 9.00846 141.409 8.34082 141.601 7.75293C141.797 7.16048 142.072 6.6569 142.428 6.24219C142.783 5.82292 143.205 5.50391 143.692 5.28516C144.185 5.06641 144.725 4.95703 145.312 4.95703C145.919 4.95703 146.465 5.06641 146.953 5.28516C147.445 5.50391 147.867 5.82292 148.218 6.24219C148.573 6.6569 148.844 7.16048 149.031 7.75293C149.223 8.34082 149.318 9.00846 149.318 9.75586ZM148.013 10.3848V9.74219C148.013 9.14974 147.951 8.62565 147.828 8.16992C147.71 7.71419 147.534 7.33138 147.302 7.02148C147.069 6.71159 146.785 6.47689 146.447 6.31738C146.115 6.15788 145.736 6.07812 145.312 6.07812C144.902 6.07812 144.531 6.15788 144.198 6.31738C143.87 6.47689 143.588 6.71159 143.351 7.02148C143.118 7.33138 142.938 7.71419 142.811 8.16992C142.683 8.62565 142.619 9.14974 142.619 9.74219V10.3848C142.619 10.9818 142.683 11.5104 142.811 11.9707C142.938 12.4264 143.12 12.8115 143.357 13.126C143.599 13.4359 143.884 13.6706 144.212 13.8301C144.545 13.9896 144.916 14.0693 145.326 14.0693C145.755 14.0693 146.135 13.9896 146.468 13.8301C146.8 13.6706 147.081 13.4359 147.309 13.126C147.541 12.8115 147.716 12.4264 147.835 11.9707C147.953 11.5104 148.013 10.9818 148.013 10.3848ZM152.367 8.8125V15.0469H151.103V7.65039H152.333L152.367 8.8125ZM154.678 7.60938L154.671 8.78516C154.566 8.76237 154.466 8.7487 154.37 8.74414C154.279 8.73503 154.174 8.73047 154.056 8.73047C153.764 8.73047 153.507 8.77604 153.283 8.86719C153.06 8.95833 152.871 9.08594 152.716 9.25C152.561 9.41406 152.438 9.61003 152.347 9.83789C152.26 10.0612 152.203 10.3073 152.176 10.5762L151.82 10.7812C151.82 10.3346 151.864 9.91536 151.95 9.52344C152.041 9.13151 152.18 8.78516 152.367 8.48438C152.554 8.17904 152.791 7.94206 153.078 7.77344C153.37 7.60026 153.716 7.51367 154.117 7.51367C154.208 7.51367 154.313 7.52507 154.432 7.54785C154.55 7.56608 154.632 7.58659 154.678 7.60938Z" fill="#060E1E"/>
<rect x="171.5" y="9.54688" width="124.5" height="1" fill="#E9EAEC"/>
</svg>
