<svg width="18" height="17" viewBox="0 0 18 17" fill="none" xmlns="http://www.w3.org/2000/svg">
<path d="M17.3334 6.90104C17.4167 6.48438 17.0834 5.98438 16.6667 5.98438L11.9167 5.31771L9.75002 0.984376C9.66669 0.817709 9.58335 0.734376 9.41669 0.651042C9.00002 0.401042 8.50002 0.567709 8.25002 0.984376L6.16669 5.31771L1.41669 5.98438C1.16669 5.98438 1.00002 6.06771 0.916687 6.23438C0.583354 6.56771 0.583354 7.06771 0.916687 7.40104L4.33335 10.7344L3.50002 15.4844C3.50002 15.651 3.50002 15.8177 3.58335 15.9844C3.83335 16.401 4.33335 16.5677 4.75002 16.3177L9.00002 14.0677L13.25 16.3177C13.3334 16.401 13.5 16.401 13.6667 16.401C13.75 16.401 13.75 16.401 13.8334 16.401C14.25 16.3177 14.5834 15.901 14.5 15.401L13.6667 10.651L17.0834 7.31771C17.25 7.23438 17.3334 7.06771 17.3334 6.90104Z" fill="#FFCF5C"/>
</svg>
