<svg width="21" height="21" viewBox="0 0 21 21" fill="none" xmlns="http://www.w3.org/2000/svg">
<path d="M20.7094 19.0795L16.9994 15.3995C18.4395 13.6039 19.1369 11.3248 18.9482 9.03076C18.7595 6.73676 17.6991 4.60224 15.9849 3.0661C14.2708 1.52996 12.0332 0.708965 9.73234 0.771926C7.43145 0.834886 5.24214 1.77702 3.61456 3.4046C1.98698 5.03218 1.04485 7.22149 0.981887 9.52238C0.918926 11.8233 1.73992 14.0608 3.27606 15.775C4.8122 17.4891 6.94672 18.5496 9.24072 18.7383C11.5347 18.927 13.8138 18.2296 15.6094 16.7895L19.2894 20.4695C19.3824 20.5632 19.493 20.6376 19.6148 20.6883C19.7367 20.7391 19.8674 20.7653 19.9994 20.7653C20.1314 20.7653 20.2621 20.7391 20.384 20.6883C20.5059 20.6376 20.6165 20.5632 20.7094 20.4695C20.8897 20.283 20.9904 20.0338 20.9904 19.7745C20.9904 19.5151 20.8897 19.2659 20.7094 19.0795ZM9.99942 16.7895C8.61495 16.7895 7.26157 16.3789 6.11042 15.6097C4.95928 14.8406 4.06207 13.7473 3.53226 12.4682C3.00245 11.1892 2.86382 9.78169 3.13392 8.42382C3.40402 7.06596 4.0707 5.81868 5.04967 4.83971C6.02864 3.86074 7.27592 3.19405 8.63378 2.92396C9.99165 2.65386 11.3991 2.79248 12.6782 3.3223C13.9573 3.85211 15.0505 4.74932 15.8197 5.90046C16.5889 7.05161 16.9994 8.40499 16.9994 9.78946C16.9994 11.646 16.2619 13.4264 14.9492 14.7392C13.6364 16.052 11.8559 16.7895 9.99942 16.7895Z" fill="white"/>
</svg>
