<svg width="18" height="5" viewBox="0 0 18 5" fill="none" xmlns="http://www.w3.org/2000/svg">
<path d="M9 0.046875C8.60444 0.046875 8.21776 0.164173 7.88886 0.383936C7.55996 0.603699 7.30362 0.916056 7.15224 1.28151C7.00087 1.64696 6.96126 2.04909 7.03843 2.43706C7.1156 2.82502 7.30608 3.18138 7.58579 3.46109C7.86549 3.74079 8.22186 3.93128 8.60982 4.00845C8.99778 4.08562 9.39992 4.04601 9.76537 3.89463C10.1308 3.74326 10.4432 3.48691 10.6629 3.15802C10.8827 2.82912 11 2.44244 11 2.04688C11 1.51644 10.7893 1.00773 10.4142 0.632662C10.0391 0.257589 9.53043 0.046875 9 0.046875ZM2 0.046875C1.60444 0.046875 1.21776 0.164173 0.88886 0.383936C0.559962 0.603699 0.303617 0.916056 0.152242 1.28151C0.000866562 1.64696 -0.0387401 2.04909 0.0384303 2.43706C0.115601 2.82502 0.306082 3.18138 0.585787 3.46109C0.865492 3.74079 1.22186 3.93128 1.60982 4.00845C1.99778 4.08562 2.39992 4.04601 2.76537 3.89463C3.13082 3.74326 3.44318 3.48691 3.66294 3.15802C3.8827 2.82912 4 2.44244 4 2.04688C4 1.51644 3.78929 1.00773 3.41421 0.632662C3.03914 0.257589 2.53043 0.046875 2 0.046875ZM16 0.046875C15.6044 0.046875 15.2178 0.164173 14.8889 0.383936C14.56 0.603699 14.3036 0.916056 14.1522 1.28151C14.0009 1.64696 13.9613 2.04909 14.0384 2.43706C14.1156 2.82502 14.3061 3.18138 14.5858 3.46109C14.8655 3.74079 15.2219 3.93128 15.6098 4.00845C15.9978 4.08562 16.3999 4.04601 16.7654 3.89463C17.1308 3.74326 17.4432 3.48691 17.6629 3.15802C17.8827 2.82912 18 2.44244 18 2.04688C18 1.51644 17.7893 1.00773 17.4142 0.632662C17.0391 0.257589 16.5304 0.046875 16 0.046875Z" fill="#060E1E"/>
</svg>
