<svg width="18" height="17" viewBox="0 0 18 17" fill="none" xmlns="http://www.w3.org/2000/svg">
<path d="M17.3334 6.54271C17.2807 6.39028 17.185 6.2564 17.0578 6.15729C16.9306 6.05819 16.7774 5.99812 16.6167 5.98437L11.875 5.29271L9.75002 0.984374C9.68178 0.843481 9.57524 0.724659 9.44259 0.641518C9.30995 0.558378 9.15657 0.514282 9.00002 0.514282C8.84347 0.514282 8.69009 0.558378 8.55745 0.641518C8.4248 0.724659 8.31826 0.843481 8.25002 0.984374L6.12502 5.28437L1.38336 5.98437C1.22912 6.0063 1.08413 6.07101 0.964814 6.17117C0.845502 6.27134 0.756655 6.40294 0.708355 6.55104C0.664143 6.69577 0.660175 6.84981 0.696878 6.99662C0.733582 7.14343 0.80957 7.27748 0.916689 7.38437L4.35835 10.7177L3.52502 15.451C3.49138 15.6081 3.50382 15.7715 3.56084 15.9216C3.61787 16.0717 3.71705 16.2021 3.84646 16.2972C3.97587 16.3923 4.13 16.4479 4.2903 16.4575C4.45059 16.467 4.61024 16.4301 4.75002 16.351L9.00002 14.126L13.25 16.351C13.367 16.417 13.4991 16.4515 13.6334 16.451C13.8099 16.4517 13.982 16.3962 14.125 16.2927C14.2543 16.2001 14.3544 16.0724 14.4135 15.9248C14.4725 15.7771 14.4881 15.6156 14.4584 15.4594L13.625 10.726L17.0667 7.39271C17.187 7.29077 17.2759 7.15679 17.3231 7.00633C17.3703 6.85587 17.3739 6.6951 17.3334 6.54271ZM12.2084 9.87604C12.1119 9.96971 12.0395 10.0853 11.9975 10.213C11.9554 10.3407 11.9448 10.4767 11.9667 10.6094L12.5667 14.1094L9.43335 12.4427C9.31158 12.3825 9.17755 12.3511 9.04169 12.3511C8.90583 12.3511 8.7718 12.3825 8.65002 12.4427L5.51669 14.1094L6.11669 10.6094C6.13855 10.4767 6.12799 10.3407 6.08591 10.213C6.04383 10.0853 5.97147 9.96971 5.87502 9.87604L3.37502 7.37604L6.88335 6.86771C7.01835 6.84893 7.14669 6.79733 7.2571 6.71742C7.36752 6.63751 7.45665 6.53174 7.51669 6.40937L9.00002 3.23437L10.5667 6.41771C10.6267 6.54007 10.7159 6.64584 10.8263 6.72575C10.9367 6.80566 11.065 6.85726 11.2 6.87604L14.7084 7.38437L12.2084 9.87604Z" fill="#FFCF5C"/>
</svg>
