<svg width="100" height="20" xmlns="http://www.w3.org/2000/svg" fill="none">
 <g id="Layer_1">
  <title>Layer 1</title>
  <g filter="url(#svg_1_blur)" id="svg_1">
   <path id="svg_2" d="m920.31183,457.32918c0.0833,-0.41667 -0.25,-0.91667 -0.6667,-0.91667l-4.75,-0.66666l-2.1666,-4.33334c-0.0834,-0.16666 -0.1667,-0.25 -0.3334,-0.33333c-0.41664,-0.25 -0.91664,-0.08333 -1.16664,0.33333l-2.08333,4.33334l-4.75,0.66666c-0.25,0 -0.41667,0.08334 -0.5,0.25c-0.33334,0.33334 -0.33334,0.83334 0,1.16667l3.41666,3.33333l-0.83333,4.75c0,0.1667 0,0.3333 0.08333,0.5c0.25,0.4167 0.75,0.5833 1.16667,0.3333l4.25,-2.25l4.25004,2.25c0.0833,0.0834 0.25,0.0834 0.4166,0.0834c0.0834,0 0.0834,0 0.1667,0c0.4167,-0.0834 0.75,-0.5 0.6667,-1l-0.8334,-4.75l3.4167,-3.33336c0.1667,-0.08334 0.25,-0.25 0.25,-0.41667z" fill="#FFCF5C"/>
   <path id="svg_3" d="m940.31183,457.32918c0.0833,-0.41667 -0.25,-0.91667 -0.6667,-0.91667l-4.75,-0.66666l-2.1666,-4.33334c-0.0834,-0.16666 -0.1667,-0.25 -0.3334,-0.33333c-0.4166,-0.25 -0.9166,-0.08333 -1.1666,0.33333l-2.0834,4.33334l-4.75,0.66666c-0.25,0 -0.4166,0.08334 -0.5,0.25c-0.3333,0.33334 -0.3333,0.83334 0,1.16667l3.4167,3.33333l-0.8333,4.75c0,0.1667 0,0.3333 0.0833,0.5c0.25,0.4167 0.75,0.5833 1.1667,0.3333l4.25,-2.25l4.25,2.25c0.0833,0.0834 0.25,0.0834 0.4166,0.0834c0.0834,0 0.0834,0 0.1667,0c0.4167,-0.0834 0.75,-0.5 0.6667,-1l-0.8334,-4.75l3.4167,-3.33336c0.1667,-0.08334 0.25,-0.25 0.25,-0.41667z" fill="#FFCF5C"/>
   <path id="svg_4" d="m960.31193,456.97084c-0.0527,-0.15242 -0.1484,-0.28631 -0.2756,-0.38541c-0.1272,-0.09911 -0.2804,-0.15917 -0.4411,-0.17292l-4.7417,-0.69167l-2.125,-4.30833c-0.0682,-0.14089 -0.1748,-0.25972 -0.3074,-0.34286c-0.1327,-0.08314 -0.286,-0.12723 -0.4426,-0.12723c-0.1565,0 -0.3099,0.04409 -0.4426,0.12723c-0.1326,0.08314 -0.2391,0.20197 -0.3074,0.34286l-2.125,4.3l-4.7416,0.7c-0.1543,0.02192 -0.2993,0.08663 -0.4186,0.1868c-0.1193,0.10016 -0.2081,0.23176 -0.2564,0.37987c-0.0443,0.14472 -0.0482,0.29876 -0.0115,0.44557c0.0367,0.14682 0.1127,0.28086 0.2198,0.38776l3.4417,3.3333l-0.8334,4.7334c-0.0336,0.157 -0.0212,0.3204 0.0358,0.4705c0.0571,0.1501 0.1563,0.2806 0.2857,0.3756c0.1294,0.0951 0.2835,0.1508 0.4438,0.1603c0.1603,0.0096 0.3199,-0.0274 0.4597,-0.1064l4.25,-2.225l4.25,2.225c0.117,0.0659 0.2491,0.1004 0.3834,0.1c0.1765,0.0006 0.3486,-0.0548 0.4916,-0.1584c0.1293,-0.0926 0.2294,-0.2203 0.2885,-0.3679c0.059,-0.1477 0.0746,-0.3092 0.0449,-0.4654l-0.8334,-4.7333l3.4417,-3.33337c0.1203,-0.10193 0.2092,-0.23591 0.2564,-0.38637c0.0472,-0.15047 0.0508,-0.31123 0.0103,-0.46363zm-5.125,3.33337c-0.0965,0.0936 -0.1689,0.2093 -0.2109,0.337c-0.0421,0.1277 -0.0527,0.2636 -0.0308,0.3963l0.6,3.5l-3.1333,-1.6667c-0.1218,-0.0602 -0.2559,-0.0915 -0.3917,-0.0915c-0.1359,0 -0.2699,0.0313 -0.3917,0.0915l-3.1333,1.6667l0.6,-3.5c0.0219,-0.1327 0.0113,-0.2686 -0.0308,-0.3963c-0.0421,-0.1277 -0.1144,-0.2434 -0.2109,-0.337l-2.5,-2.50003l3.5084,-0.50834c0.135,-0.01878 0.2633,-0.07038 0.3737,-0.15029c0.1104,-0.07991 0.1996,-0.18568 0.2596,-0.30804l1.4833,-3.175l1.5667,3.18333c0.06,0.12237 0.1492,0.22814 0.2596,0.30805c0.1104,0.0799 0.2387,0.13151 0.3737,0.15029l3.5084,0.50833l-2.5,2.4917z" fill="#FFCF5C"/>
   <path id="svg_5" d="m980.31193,456.97084c-0.0527,-0.15242 -0.1484,-0.28631 -0.2756,-0.38541c-0.1272,-0.09911 -0.2804,-0.15917 -0.4411,-0.17292l-4.7417,-0.69167l-2.125,-4.30833c-0.0682,-0.14089 -0.1748,-0.25972 -0.3074,-0.34286c-0.1327,-0.08314 -0.286,-0.12723 -0.4426,-0.12723c-0.1565,0 -0.3099,0.04409 -0.4426,0.12723c-0.1326,0.08314 -0.2391,0.20197 -0.3074,0.34286l-2.125,4.3l-4.7416,0.7c-0.1543,0.02192 -0.2993,0.08663 -0.4186,0.1868c-0.1193,0.10016 -0.2081,0.23176 -0.2564,0.37987c-0.0443,0.14472 -0.0482,0.29876 -0.0115,0.44557c0.0367,0.14682 0.1127,0.28086 0.2198,0.38776l3.4417,3.3333l-0.8334,4.7334c-0.0336,0.157 -0.0212,0.3204 0.0358,0.4705c0.0571,0.1501 0.1563,0.2806 0.2857,0.3756c0.1294,0.0951 0.2835,0.1508 0.4438,0.1603c0.1603,0.0096 0.3199,-0.0274 0.4597,-0.1064l4.25,-2.225l4.25,2.225c0.117,0.0659 0.2491,0.1004 0.3834,0.1c0.1765,0.0006 0.3486,-0.0548 0.4916,-0.1584c0.1293,-0.0926 0.2294,-0.2203 0.2885,-0.3679c0.059,-0.1477 0.0746,-0.3092 0.0449,-0.4654l-0.8334,-4.7333l3.4417,-3.33337c0.1203,-0.10193 0.2092,-0.23591 0.2564,-0.38637c0.0472,-0.15047 0.0508,-0.31123 0.0103,-0.46363zm-5.125,3.33337c-0.0965,0.0936 -0.1689,0.2093 -0.2109,0.337c-0.0421,0.1277 -0.0527,0.2636 -0.0308,0.3963l0.6,3.5l-3.1333,-1.6667c-0.1218,-0.0602 -0.2559,-0.0915 -0.3917,-0.0915c-0.1359,0 -0.2699,0.0313 -0.3917,0.0915l-3.1333,1.6667l0.6,-3.5c0.0219,-0.1327 0.0113,-0.2686 -0.0308,-0.3963c-0.0421,-0.1277 -0.1144,-0.2434 -0.2109,-0.337l-2.5,-2.50003l3.5084,-0.50834c0.135,-0.01878 0.2633,-0.07038 0.3737,-0.15029c0.1104,-0.07991 0.1996,-0.18568 0.2596,-0.30804l1.4833,-3.175l1.5667,3.18333c0.06,0.12237 0.1492,0.22814 0.2596,0.30805c0.1104,0.0799 0.2387,0.13151 0.3737,0.15029l3.5084,0.50833l-2.5,2.4917z" fill="#FFCF5C"/>
   <path id="svg_6" d="m1000.31193,456.97084c-0.0527,-0.15242 -0.1484,-0.28631 -0.2756,-0.38541c-0.1272,-0.09911 -0.2804,-0.15917 -0.4411,-0.17292l-4.7417,-0.69167l-2.125,-4.30833c-0.0682,-0.14089 -0.1748,-0.25972 -0.3074,-0.34286c-0.1327,-0.08314 -0.286,-0.12723 -0.4426,-0.12723c-0.1565,0 -0.3099,0.04409 -0.4426,0.12723c-0.1326,0.08314 -0.2391,0.20197 -0.3074,0.34286l-2.125,4.3l-4.7416,0.7c-0.1543,0.02192 -0.2993,0.08663 -0.4186,0.1868c-0.1193,0.10016 -0.2081,0.23176 -0.2564,0.37987c-0.0443,0.14472 -0.0482,0.29876 -0.0115,0.44557c0.0367,0.14682 0.1127,0.28086 0.2198,0.38776l3.4417,3.3333l-0.8334,4.7334c-0.0336,0.157 -0.0212,0.3204 0.0358,0.4705c0.0571,0.1501 0.1563,0.2806 0.2857,0.3756c0.1294,0.0951 0.2835,0.1508 0.4438,0.1603c0.1603,0.0096 0.3199,-0.0274 0.4597,-0.1064l4.25,-2.225l4.25,2.225c0.117,0.0659 0.2491,0.1004 0.3834,0.1c0.1765,0.0006 0.3486,-0.0548 0.4916,-0.1584c0.1293,-0.0926 0.2294,-0.2203 0.2885,-0.3679c0.059,-0.1477 0.0746,-0.3092 0.0449,-0.4654l-0.8334,-4.7333l3.4417,-3.33337c0.1203,-0.10193 0.2092,-0.23591 0.2564,-0.38637c0.0472,-0.15047 0.0508,-0.31123 0.0103,-0.46363zm-5.125,3.33337c-0.0965,0.0936 -0.1689,0.2093 -0.2109,0.337c-0.0421,0.1277 -0.0527,0.2636 -0.0308,0.3963l0.6,3.5l-3.1333,-1.6667c-0.1218,-0.0602 -0.2559,-0.0915 -0.3917,-0.0915c-0.1359,0 -0.2699,0.0313 -0.3917,0.0915l-3.1333,1.6667l0.6,-3.5c0.0219,-0.1327 0.0113,-0.2686 -0.0308,-0.3963c-0.0421,-0.1277 -0.1144,-0.2434 -0.2109,-0.337l-2.5,-2.50003l3.5084,-0.50834c0.135,-0.01878 0.2633,-0.07038 0.3737,-0.15029c0.1104,-0.07991 0.1996,-0.18568 0.2596,-0.30804l1.4833,-3.175l1.5667,3.18333c0.06,0.12237 0.1492,0.22814 0.2596,0.30805c0.1104,0.0799 0.2387,0.13151 0.3737,0.15029l3.5084,0.50833l-2.5,2.4917z" fill="#FFCF5C"/>
  </g>
  <g id="svg_7">
   <path fill="#FFCF5C" d="m18.65001,8.62315c0.0833,-0.41667 -0.25,-0.91667 -0.6667,-0.91667l-4.75,-0.66666l-2.1666,-4.33334c-0.0834,-0.16666 -0.1667,-0.25 -0.3334,-0.33333c-0.41664,-0.25 -0.91664,-0.08333 -1.16664,0.33333l-2.08333,4.33334l-4.75,0.66666c-0.25,0 -0.41667,0.08334 -0.5,0.25c-0.33334,0.33334 -0.33334,0.83334 0,1.16667l3.41666,3.33333l-0.83333,4.75c0,0.1667 0,0.3333 0.08333,0.5c0.25,0.4167 0.75,0.5833 1.16667,0.3333l4.25,-2.25l4.25004,2.25c0.0833,0.0834 0.25,0.0834 0.4166,0.0834c0.0834,0 0.0834,0 0.1667,0c0.4167,-0.0834 0.75,-0.5 0.6667,-1l-0.8334,-4.75l3.4167,-3.33336c0.1667,-0.08334 0.25,-0.25 0.25,-0.41667z" id="svg_8"/>
   <path fill="#FFCF5C" d="m38.65001,8.62315c0.0833,-0.41667 -0.25,-0.91667 -0.6667,-0.91667l-4.75,-0.66666l-2.1666,-4.33334c-0.0834,-0.16666 -0.1667,-0.25 -0.3334,-0.33333c-0.4166,-0.25 -0.9166,-0.08333 -1.1666,0.33333l-2.0834,4.33334l-4.75,0.66666c-0.25,0 -0.4166,0.08334 -0.5,0.25c-0.3333,0.33334 -0.3333,0.83334 0,1.16667l3.4167,3.33333l-0.8333,4.75c0,0.1667 0,0.3333 0.0833,0.5c0.25,0.4167 0.75,0.5833 1.1667,0.3333l4.25,-2.25l4.25,2.25c0.0833,0.0834 0.25,0.0834 0.4166,0.0834c0.0834,0 0.0834,0 0.1667,0c0.4167,-0.0834 0.75,-0.5 0.6667,-1l-0.8334,-4.75l3.4167,-3.33336c0.1667,-0.08334 0.25,-0.25 0.25,-0.41667z" id="svg_9"/>
   <path fill="#FFCF5C" d="m58.65011,8.26481c-0.0527,-0.15242 -0.1484,-0.28631 -0.2756,-0.38541c-0.1272,-0.09911 -0.2804,-0.15917 -0.4411,-0.17292l-4.7417,-0.69167l-2.125,-4.30833c-0.0682,-0.14089 -0.1748,-0.25972 -0.3074,-0.34286c-0.1327,-0.08314 -0.286,-0.12723 -0.4426,-0.12723c-0.1565,0 -0.3099,0.04409 -0.4426,0.12723c-0.1326,0.08314 -0.2391,0.20197 -0.3074,0.34286l-2.125,4.3l-4.7416,0.7c-0.1543,0.02192 -0.2993,0.08663 -0.4186,0.1868c-0.1193,0.10016 -0.2081,0.23176 -0.2564,0.37987c-0.0443,0.14472 -0.0482,0.29876 -0.0115,0.44557c0.0367,0.14682 0.1127,0.28086 0.2198,0.38776l3.4417,3.3333l-0.8334,4.7334c-0.0336,0.157 -0.0212,0.3204 0.0358,0.4705c0.0571,0.1501 0.1563,0.2806 0.2857,0.3756c0.1294,0.0951 0.2835,0.1508 0.4438,0.1603c0.1603,0.0096 0.3199,-0.0274 0.4597,-0.1064l4.25,-2.225l4.25,2.225c0.117,0.0659 0.2491,0.1004 0.3834,0.1c0.1765,0.0006 0.3486,-0.0548 0.4916,-0.1584c0.1293,-0.0926 0.2294,-0.2203 0.2885,-0.3679c0.059,-0.1477 0.0746,-0.3092 0.0449,-0.4654l-0.8334,-4.7333l3.4417,-3.33337c0.1203,-0.10193 0.2092,-0.23591 0.2564,-0.38637c0.0472,-0.15047 0.0508,-0.31123 0.0103,-0.46363zm-5.125,3.33337c-0.0965,0.0936 -0.1689,0.2093 -0.2109,0.337c-0.0421,0.1277 -0.0527,0.2636 -0.0308,0.3963l0.6,3.5l-3.1333,-1.6667c-0.1218,-0.0602 -0.2559,-0.0915 -0.3917,-0.0915c-0.1359,0 -0.2699,0.0313 -0.3917,0.0915l-3.1333,1.6667l0.6,-3.5c0.0219,-0.1327 0.0113,-0.2686 -0.0308,-0.3963c-0.0421,-0.1277 -0.1144,-0.2434 -0.2109,-0.337l-2.5,-2.50003l3.5084,-0.50834c0.135,-0.01878 0.2633,-0.07038 0.3737,-0.15029c0.1104,-0.07991 0.1996,-0.18568 0.2596,-0.30804l1.4833,-3.175l1.5667,3.18333c0.06,0.12237 0.1492,0.22814 0.2596,0.30805c0.1104,0.0799 0.2387,0.13151 0.3737,0.15029l3.5084,0.50833l-2.5,2.4917z" id="svg_10"/>
   <path fill="#FFCF5C" d="m78.65011,8.26481c-0.0527,-0.15242 -0.1484,-0.28631 -0.2756,-0.38541c-0.1272,-0.09911 -0.2804,-0.15917 -0.4411,-0.17292l-4.7417,-0.69167l-2.125,-4.30833c-0.0682,-0.14089 -0.1748,-0.25972 -0.3074,-0.34286c-0.1327,-0.08314 -0.286,-0.12723 -0.4426,-0.12723c-0.1565,0 -0.3099,0.04409 -0.4426,0.12723c-0.1326,0.08314 -0.2391,0.20197 -0.3074,0.34286l-2.125,4.3l-4.7416,0.7c-0.1543,0.02192 -0.2993,0.08663 -0.4186,0.1868c-0.1193,0.10016 -0.2081,0.23176 -0.2564,0.37987c-0.0443,0.14472 -0.0482,0.29876 -0.0115,0.44557c0.0367,0.14682 0.1127,0.28086 0.2198,0.38776l3.4417,3.3333l-0.8334,4.7334c-0.0336,0.157 -0.0212,0.3204 0.0358,0.4705c0.0571,0.1501 0.1563,0.2806 0.2857,0.3756c0.1294,0.0951 0.2835,0.1508 0.4438,0.1603c0.1603,0.0096 0.3199,-0.0274 0.4597,-0.1064l4.25,-2.225l4.25,2.225c0.117,0.0659 0.2491,0.1004 0.3834,0.1c0.1765,0.0006 0.3486,-0.0548 0.4916,-0.1584c0.1293,-0.0926 0.2294,-0.2203 0.2885,-0.3679c0.059,-0.1477 0.0746,-0.3092 0.0449,-0.4654l-0.8334,-4.7333l3.4417,-3.33337c0.1203,-0.10193 0.2092,-0.23591 0.2564,-0.38637c0.0472,-0.15047 0.0508,-0.31123 0.0103,-0.46363zm-5.125,3.33337c-0.0965,0.0936 -0.1689,0.2093 -0.2109,0.337c-0.0421,0.1277 -0.0527,0.2636 -0.0308,0.3963l0.6,3.5l-3.1333,-1.6667c-0.1218,-0.0602 -0.2559,-0.0915 -0.3917,-0.0915c-0.1359,0 -0.2699,0.0313 -0.3917,0.0915l-3.1333,1.6667l0.6,-3.5c0.0219,-0.1327 0.0113,-0.2686 -0.0308,-0.3963c-0.0421,-0.1277 -0.1144,-0.2434 -0.2109,-0.337l-2.5,-2.50003l3.5084,-0.50834c0.135,-0.01878 0.2633,-0.07038 0.3737,-0.15029c0.1104,-0.07991 0.1996,-0.18568 0.2596,-0.30804l1.4833,-3.175l1.5667,3.18333c0.06,0.12237 0.1492,0.22814 0.2596,0.30805c0.1104,0.0799 0.2387,0.13151 0.3737,0.15029l3.5084,0.50833l-2.5,2.4917z" id="svg_11"/>
   <path fill="#FFCF5C" d="m98.65011,8.26481c-0.0527,-0.15242 -0.1484,-0.28631 -0.2756,-0.38541c-0.1272,-0.09911 -0.2804,-0.15917 -0.4411,-0.17292l-4.7417,-0.69167l-2.125,-4.30833c-0.0682,-0.14089 -0.1748,-0.25972 -0.3074,-0.34286c-0.1327,-0.08314 -0.286,-0.12723 -0.4426,-0.12723c-0.1565,0 -0.3099,0.04409 -0.4426,0.12723c-0.1326,0.08314 -0.2391,0.20197 -0.3074,0.34286l-2.125,4.3l-4.7416,0.7c-0.1543,0.02192 -0.2993,0.08663 -0.4186,0.1868c-0.1193,0.10016 -0.2081,0.23176 -0.2564,0.37987c-0.0443,0.14472 -0.0482,0.29876 -0.0115,0.44557c0.0367,0.14682 0.1127,0.28086 0.2198,0.38776l3.4417,3.3333l-0.8334,4.7334c-0.0336,0.157 -0.0212,0.3204 0.0358,0.4705c0.0571,0.1501 0.1563,0.2806 0.2857,0.3756c0.1294,0.0951 0.2835,0.1508 0.4438,0.1603c0.1603,0.0096 0.3199,-0.0274 0.4597,-0.1064l4.25,-2.225l4.25,2.225c0.117,0.0659 0.2491,0.1004 0.3834,0.1c0.1765,0.0006 0.3486,-0.0548 0.4916,-0.1584c0.1293,-0.0926 0.2294,-0.2203 0.2885,-0.3679c0.059,-0.1477 0.0746,-0.3092 0.0449,-0.4654l-0.8334,-4.7333l3.4417,-3.33337c0.1203,-0.10193 0.2092,-0.23591 0.2564,-0.38637c0.0472,-0.15047 0.0508,-0.31123 0.0103,-0.46363zm-5.125,3.33337c-0.0965,0.0936 -0.1689,0.2093 -0.2109,0.337c-0.0421,0.1277 -0.0527,0.2636 -0.0308,0.3963l0.6,3.5l-3.1333,-1.6667c-0.1218,-0.0602 -0.2559,-0.0915 -0.3917,-0.0915c-0.1359,0 -0.2699,0.0313 -0.3917,0.0915l-3.1333,1.6667l0.6,-3.5c0.0219,-0.1327 0.0113,-0.2686 -0.0308,-0.3963c-0.0421,-0.1277 -0.1144,-0.2434 -0.2109,-0.337l-2.5,-2.50003l3.5084,-0.50834c0.135,-0.01878 0.2633,-0.07038 0.3737,-0.15029c0.1104,-0.07991 0.1996,-0.18568 0.2596,-0.30804l1.4833,-3.175l1.5667,3.18333c0.06,0.12237 0.1492,0.22814 0.2596,0.30805c0.1104,0.0799 0.2387,0.13151 0.3737,0.15029l3.5084,0.50833l-2.5,2.4917z" id="svg_12"/>
   <path fill="#FFCF5C" d="m58.67982,8.58589c0.0833,-0.41667 -0.25,-0.91667 -0.6667,-0.91667l-4.75,-0.66666l-2.1666,-4.33334c-0.0834,-0.16666 -0.1667,-0.25 -0.3334,-0.33333c-0.4166,-0.25 -0.9166,-0.08333 -1.1666,0.33333l-2.0834,4.33334l-4.75,0.66666c-0.25,0 -0.4166,0.08334 -0.5,0.25c-0.3333,0.33334 -0.3333,0.83334 0,1.16667l3.4167,3.33333l-0.8333,4.75c0,0.1667 0,0.3333 0.0833,0.5c0.25,0.4167 0.75,0.5833 1.1667,0.3333l4.25,-2.25l4.25,2.25c0.0833,0.0834 0.25,0.0834 0.4166,0.0834c0.0834,0 0.0834,0 0.1667,0c0.4167,-0.0834 0.75,-0.5 0.6667,-1l-0.8334,-4.75l3.4167,-3.33336c0.1667,-0.08334 0.25,-0.25 0.25,-0.41667z" id="svg_13"/>
  </g>
 </g>
 <defs>
  <filter id="svg_1_blur">
   <feGaussianBlur stdDeviation="0.2" in="SourceGraphic"/>
  </filter>
 </defs>
</svg>